<svg width="18" height="14" viewBox="0 0 18 14" fill="none" xmlns="http://www.w3.org/2000/svg"><path d="M15.6667.333252H2.33341C1.41675.333252.675081 1.08325.675081 1.99992L.666748 11.9999C.666748 12.9166 1.41675 13.6666 2.33341 13.6666H15.6667C16.5834 13.6666 17.3334 12.9166 17.3334 11.9999V1.99992C17.3334 1.08325 16.5834.333252 15.6667.333252zM15.3334 3.87492 9.44175 7.55825C9.17508 7.72492 8.82508 7.72492 8.55842 7.55825L2.66675 3.87492C2.58319 3.82801 2.51001 3.76464 2.45166 3.68863 2.3933 3.61262 2.35097 3.52557 2.32723 3.43273 2.30349 3.33989 2.29883 3.2432 2.31355 3.14851 2.32826 3.05382 2.36203 2.9631 2.41282 2.88184 2.4636 2.80058 2.53035 2.73046 2.60902 2.67575 2.68769 2.62103 2.77664 2.58284 2.87049 2.5635 2.96435 2.54416 3.06115 2.54406 3.15504 2.56321 3.24894 2.58236 3.33797 2.62036 3.41675 2.67492L9.00008 6.16658 14.5834 2.67492C14.6622 2.62036 14.7512 2.58236 14.8451 2.56321 14.939 2.54406 15.0358 2.54416 15.1297 2.5635 15.2235 2.58284 15.3125 2.62103 15.3911 2.67575 15.4698 2.73046 15.5366 2.80058 15.5873 2.88184 15.6381 2.9631 15.6719 3.05382 15.6866 3.14851 15.7013 3.2432 15.6967 3.33989 15.6729 3.43273 15.6492 3.52557 15.6069 3.61262 15.5485 3.68863 15.4902 3.76464 15.417 3.82801 15.3334 3.87492v0z" fill="#bdbdbd"/></svg>