<svg width="176" height="19" viewBox="0 0 176 19" fill="none" xmlns="http://www.w3.org/2000/svg"><path d="M14.2383 13.8281C14.2383 14.4766 14.1172 15.0352 13.875 15.5039 13.6406 15.9727 13.3242 16.3711 12.9258 16.6992 12.5273 17.0273 12.0664 17.2969 11.543 17.5078 11.0273 17.7109 10.4883 17.8711 9.92578 17.9883 9.36328 18.1055 8.79688 18.1836 8.22656 18.2227 7.66406 18.2617 7.13672 18.2812 6.64453 18.2812 6.16016 18.2812 5.65625 18.2617 5.13281 18.2227 4.61719 18.1914 4.10156 18.1328 3.58594 18.0469 3.07031 17.9609 2.5625 17.8477 2.0625 17.707 1.5625 17.5586 1.08984 17.375.644531 17.1562L.621094 2.0625C1.05859 1.88281 1.52344 1.72266 2.01562 1.58203 2.50781 1.43359 3.00781 1.3125 3.51562 1.21875 4.03125 1.11719 4.54297 1.04297 5.05078.996094 5.55859.941406 6.05078.914062 6.52734.914062 7.08203.914062 7.64062.949219 8.20312 1.01953 8.77344 1.08984 9.32031 1.20703 9.84375 1.37109 10.3672 1.53516 10.8555 1.75 11.3086 2.01562 11.7617 2.27344 12.1562 2.59375 12.4922 2.97656 12.8359 3.35938 13.1016 3.80469 13.2891 4.3125 13.4844 4.82031 13.582 5.40625 13.582 6.07031 13.582 6.50781 13.5195 6.91797 13.3945 7.30078 13.2695 7.68359 13.0898 8.02734 12.8555 8.33203 12.6211 8.63672 12.3359 8.89844 12 9.11719 11.6641 9.32812 11.2852 9.48438 10.8633 9.58594 11.3711 9.71875 11.832 9.91406 12.2461 10.1719 12.668 10.4297 13.0234 10.7422 13.3125 11.1094 13.6094 11.4766 13.8359 11.8906 13.9922 12.3516 14.1562 12.8125 14.2383 13.3047 14.2383 13.8281zM8.28516 7.14844C8.28516 6.92188 8.23828 6.73047 8.14453 6.57422 8.05078 6.41016 7.93359 6.27734 7.79297 6.17578 7.66016 6.07422 7.51172 6 7.34766 5.95312 7.19141 5.90625 7.05078 5.88281 6.92578 5.88281 6.76953 5.88281 6.61719 5.90625 6.46875 5.95312 6.32031 6 6.17578 6.05469 6.03516 6.11719L5.96484 8.71875C6.14453 8.71875 6.36719 8.70312 6.63281 8.67188 6.89844 8.64062 7.15234 8.57422 7.39453 8.47266 7.64453 8.36328 7.85547 8.20703 8.02734 8.00391 8.19922 7.79297 8.28516 7.50781 8.28516 7.14844zM6.62109 10.9688C6.39453 10.9688 6.17578 10.9922 5.96484 11.0391L5.91797 13.7109C6.03516 13.7344 6.14844 13.7578 6.25781 13.7812 6.375 13.7969 6.48828 13.8047 6.59766 13.8047 6.76172 13.8047 6.94141 13.7891 7.13672 13.7578 7.33203 13.7188 7.51562 13.6484 7.6875 13.5469 7.85938 13.4375 8 13.293 8.10938 13.1133 8.22656 12.9336 8.28516 12.6953 8.28516 12.3984 8.28516 12.1016 8.22656 11.8594 8.10938 11.6719 8 11.4844 7.86328 11.3398 7.69922 11.2383 7.53516 11.1289 7.35547 11.0586 7.16016 11.0273 6.96484 10.9883 6.78516 10.9688 6.62109 10.9688zM27.7148 8.53125C27.7148 9.21094 27.668 9.89062 27.5742 10.5703 26.2383 10.6562 24.9102 10.7969 23.5898 10.9922 22.2695 11.1797 20.9492 11.3672 19.6289 11.5547 19.832 12.1172 20.1484 12.5664 20.5781 12.9023 21.0156 13.2383 21.5352 13.4062 22.1367 13.4062 22.4492 13.4062 22.7891 13.3477 23.1562 13.2305 23.5312 13.1133 23.9023 12.9688 24.2695 12.7969 24.6367 12.6172 24.9883 12.4258 25.3242 12.2227 25.6602 12.0195 25.9492 11.8359 26.1914 11.6719l-.5625 5.3203C25.3242 17.2266 24.9922 17.4258 24.6328 17.5898 24.2812 17.7539 23.9141 17.8867 23.5312 17.9883 23.1484 18.0898 22.7617 18.1641 22.3711 18.2109 21.9805 18.2578 21.5977 18.2812 21.2227 18.2812 20.4492 18.2812 19.7422 18.1758 19.1016 17.9648 18.4609 17.7539 17.8789 17.4609 17.3555 17.0859 16.8398 16.7031 16.3867 16.2539 15.9961 15.7383 15.6055 15.2227 15.2812 14.6602 15.0234 14.0508 14.7656 13.4414 14.5703 12.7969 14.4375 12.1172 14.3047 11.4375 14.2383 10.75 14.2383 10.0547 14.2383 9.32812 14.3047 8.60156 14.4375 7.875 14.5703 7.14844 14.7695 6.44922 15.0352 5.77734 15.3086 5.10547 15.6484 4.48438 16.0547 3.91406 16.4688 3.33594 16.9492 2.83203 17.4961 2.40234 18.043 1.97266 18.6602 1.63672 19.3477 1.39453 20.043 1.15234 20.8086 1.03125 21.6445 1.03125 22.3398 1.03125 22.9727 1.12891 23.543 1.32422 24.1211 1.51172 24.6328 1.77734 25.0781 2.12109 25.5312 2.45703 25.9219 2.85938 26.25 3.32812 26.5859 3.79688 26.8594 4.3125 27.0703 4.875 27.2891 5.42969 27.4492 6.01953 27.5508 6.64453 27.6602 7.26172 27.7148 7.89062 27.7148 8.53125zM23.0273 7.92188C23.0273 7.70312 23.0039 7.48047 22.957 7.25391 22.9102 7.01953 22.832 6.80859 22.7227 6.62109 22.6211 6.43359 22.4844 6.28125 22.3125 6.16406 22.1406 6.03906 21.9258 5.97656 21.668 5.97656 21.3555 5.97656 21.0781 6.0625 20.8359 6.23438 20.6016 6.39844 20.3984 6.60938 20.2266 6.86719 20.0547 7.11719 19.9141 7.39062 19.8047 7.6875 19.6953 7.98438 19.6133 8.25781 19.5586 8.50781L23.0273 8.17969V7.92188zM40.5 12C40.5 13.0703 40.3125 13.9961 39.9375 14.7773 39.5703 15.5508 39.0625 16.1914 38.4141 16.6992 37.7734 17.1992 37.0195 17.5703 36.1523 17.8125 35.293 18.0469 34.3672 18.1641 33.375 18.1641 32.9922 18.1641 32.5703 18.1133 32.1094 18.0117 31.6562 17.9102 31.1953 17.7852 30.7266 17.6367 30.2578 17.4805 29.8047 17.3164 29.3672 17.1445 28.9375 16.9648 28.5547 16.7969 28.2188 16.6406L28.7344 12.0469C29.3984 12.4453 30.1328 12.75 30.9375 12.9609 31.75 13.1641 32.5469 13.2656 33.3281 13.2656 33.4766 13.2656 33.6562 13.2617 33.8672 13.2539 34.0781 13.2383 34.2773 13.2031 34.4648 13.1484 34.6602 13.0859 34.8242 12.9961 34.957 12.8789 35.0898 12.7617 35.1562 12.5938 35.1562 12.375 35.1562 12.2266 35.1094 12.1016 35.0156 12 34.9219 11.8906 34.8008 11.8047 34.6523 11.7422 34.5039 11.6719 34.3359 11.6211 34.1484 11.5898 33.9609 11.5508 33.7773 11.5234 33.5977 11.5078 33.418 11.4922 33.25 11.4844 33.0938 11.4844 32.9375 11.4844 32.8125 11.4844 32.7188 11.4844 32.0469 11.4844 31.4336 11.3789 30.8789 11.168 30.332 10.957 29.8594 10.6602 29.4609 10.2773 29.0703 9.88672 28.7656 9.41797 28.5469 8.87109 28.3281 8.31641 28.2188 7.70312 28.2188 7.03125 28.2188 6.10938 28.4023 5.28516 28.7695 4.55859 29.1445 3.82422 29.6406 3.20312 30.2578 2.69531 30.8828 2.17969 31.5977 1.78516 32.4023 1.51172 33.207 1.23828 34.0391 1.10156 34.8984 1.10156 35.2812 1.10156 35.6758 1.11719 36.082 1.14844 36.4883 1.17188 36.8906 1.21875 37.2891 1.28906 37.6953 1.35938 38.0898 1.44922 38.4727 1.55859 38.8555 1.66797 39.2188 1.80469 39.5625 1.96875L39.1172 6.72656C38.5859 6.54688 38.0273 6.39844 37.4414 6.28125 36.8633 6.15625 36.2969 6.09375 35.7422 6.09375 35.6406 6.09375 35.5078 6.09766 35.3438 6.10547 35.1875 6.10547 35.0195 6.11719 34.8398 6.14062 34.668 6.15625 34.4922 6.18359 34.3125 6.22266 34.1328 6.26172 33.9727 6.31641 33.832 6.38672 33.6914 6.44922 33.5781 6.53516 33.4922 6.64453 33.4062 6.75391 33.3672 6.88281 33.375 7.03125 33.3828 7.20312 33.4453 7.33594 33.5625 7.42969 33.6875 7.52344 33.8438 7.59375 34.0312 7.64062 34.2266 7.67969 34.4375 7.69922 34.6641 7.69922 34.8984 7.69922 35.1289 7.69531 35.3555 7.6875 35.582 7.67188 35.793 7.66016 35.9883 7.65234 36.1836 7.63672 36.3438 7.63281 36.4688 7.64062 37.0938 7.67969 37.6562 7.8125 38.1562 8.03906 38.6562 8.26562 39.0781 8.56641 39.4219 8.94141 39.7734 9.31641 40.0391 9.76562 40.2188 10.2891 40.4062 10.8047 40.5 11.375 40.5 12zM53.3906 1.47656 53.2734 6.44531 49.7812 6.58594 49.3594 17.4609 44.4141 17.7188 43.9688 6.84375 40.4766 7.03125 40.6172 1.5 53.3906 1.47656zM134.461 7.19531C134.461 7.95312 134.348 8.625 134.121 9.21094 133.895 9.79688 133.582 10.3125 133.184 10.7578 132.793 11.1953 132.332 11.5664 131.801 11.8711 131.27 12.168 130.699 12.4141 130.09 12.6094 129.488 12.7969 128.863 12.9375 128.215 13.0312 127.566 13.1172 126.93 13.1641 126.305 13.1719v4.9922H120.844C120.844 17.2734 120.844 16.4062 120.844 15.5625 120.852 14.7188 120.855 13.8828 120.855 13.0547 120.863 12.2188 120.867 11.3789 120.867 10.5352 120.875 9.69141 120.883 8.82031 120.891 7.92188 120.906 6.96875 120.91 6.01562 120.902 5.0625 120.895 4.10938 120.914 3.14844 120.961 2.17969 121.961 1.88281 122.961 1.66016 123.961 1.51172 124.961 1.36328 125.992 1.28906 127.055 1.28906 127.656 1.28906 128.258 1.33984 128.859 1.44141 129.461 1.53516 130.035 1.6875 130.582 1.89844 131.137 2.10938 131.648 2.375 132.117 2.69531 132.594 3.00781 133.004 3.38281 133.348 3.82031 133.691 4.25781 133.961 4.75781 134.156 5.32031 134.359 5.88281 134.461 6.50781 134.461 7.19531zM129.258 7.59375C129.258 7.08594 129.102 6.69141 128.789 6.41016 128.484 6.12109 128.086 5.97656 127.594 5.97656 127.43 5.97656 127.258 5.99219 127.078 6.02344 126.906 6.04688 126.742 6.07812 126.586 6.11719L126.445 9.53906C126.555 9.55469 126.66 9.5625 126.762 9.5625 126.863 9.5625 126.969 9.5625 127.078 9.5625 127.359 9.5625 127.629 9.51562 127.887 9.42188 128.152 9.32812 128.387 9.19531 128.59 9.02344 128.793 8.84375 128.953 8.63672 129.07 8.40234 129.195 8.16016 129.258 7.89062 129.258 7.59375zM145.406 11.7891 144.914 16.9922 135.047 17.7656l.375-16.73435H141.516L140.648 11.7891H145.406zM160.734 16.9922 154.922 17.7422 154.219 15.0938H151.547L150.961 17.7422 144.984 17.1562 149.648 1.54688 156.164 1.21875 160.734 16.9922zM153.797 11.5078 152.906 7.42969 152.039 11.5078H153.797zm21.726.5625C175.523 12.9531 175.512 13.8281 175.488 14.6953 175.473 15.5547 175.445 16.4219 175.406 17.2969L168.656 17.1797C168.891 15.7969 169.094 14.418 169.266 13.043 169.438 11.6602 169.523 10.2656 169.523 8.85938 169.523 8.75781 169.52 8.59375 169.512 8.36719 169.504 8.14062 169.488 7.88672 169.465 7.60547 169.441 7.31641 169.406 7.02344 169.359 6.72656 169.32 6.42188 169.262 6.14453 169.184 5.89453 169.113 5.64453 169.023 5.44141 168.914 5.28516 168.812 5.12109 168.688 5.03906 168.539 5.03906 168.273 5.03906 168.047 5.11719 167.859 5.27344 167.68 5.42969 167.527 5.63281 167.402 5.88281 167.285 6.125 167.191 6.39844 167.121 6.70312 167.051 7.00781 166.996 7.3125 166.957 7.61719 166.926 7.92188 166.902 8.21094 166.887 8.48438 166.879 8.75 166.875 8.96875 166.875 9.14062 166.836 10.5234 166.805 11.8984 166.781 13.2656 166.758 14.625 166.727 16 166.688 17.3906L160.711 17.6484C160.867 14.8906 161.016 12.1484 161.156 9.42188 161.305 6.69531 161.422 3.95312 161.508 1.19531L167.039.914062 166.992 2.78906C167.211 2.52344 167.445 2.27344 167.695 2.03906 167.953 1.80469 168.227 1.60547 168.516 1.44141 168.805 1.26953 169.109 1.13672 169.43 1.04297 169.758.941406 170.102.890625 170.461.890625 171.125.890625 171.707 1 172.207 1.21875 172.707 1.4375 173.137 1.73438 173.496 2.10938 173.855 2.48438 174.156 2.92969 174.398 3.44531 174.641 3.95312 174.836 4.49609 174.984 5.07422 175.133 5.65234 175.246 6.25781 175.324 6.89062 175.402 7.51562 175.453 8.13281 175.477 8.74219 175.508 9.35156 175.523 9.94141 175.523 10.5117 175.523 11.082 175.523 11.6016 175.523 12.0703z" fill="#333"/><path d="M71.1562 1.47656 71.0391 6.44531 67.5469 6.58594 67.125 17.4609 62.1797 17.7188 61.7344 6.84375 58.2422 7.03125 58.3828 1.5 71.1562 1.47656zM86.0742 9.02344C86.0742 9.73438 85.9922 10.4219 85.8281 11.0859 85.6641 11.7422 85.4258 12.3594 85.1133 12.9375 84.8086 13.5156 84.4336 14.0469 83.9883 14.5312 83.5508 15.0078 83.0547 15.418 82.5 15.7617 81.9531 16.1055 81.3555 16.375 80.707 16.5703 80.0586 16.7578 79.3711 16.8516 78.6445 16.8516 77.9414 16.8516 77.2695 16.7617 76.6289 16.582 75.9961 16.4023 75.4023 16.1523 74.8477 15.832 74.293 15.5039 73.7891 15.1133 73.3359 14.6602 72.8906 14.1992 72.5078 13.6914 72.1875 13.1367 71.875 12.5742 71.6289 11.9727 71.4492 11.332 71.2773 10.6914 71.1914 10.0234 71.1914 9.32812 71.1914 8.64844 71.2734 7.98438 71.4375 7.33594 71.6016 6.67969 71.8359 6.0625 72.1406 5.48438 72.4531 4.90625 72.8281 4.375 73.2656 3.89062 73.7031 3.40625 74.1914 2.98828 74.7305 2.63672 75.2773 2.28516 75.8672 2.01172 76.5 1.81641 77.1328 1.62109 77.8008 1.52344 78.5039 1.52344 79.6367 1.52344 80.668 1.69922 81.5977 2.05078 82.5352 2.40234 83.332 2.90625 83.9883 3.5625 84.6523 4.21094 85.1641 5 85.5234 5.92969 85.8906 6.85156 86.0742 7.88281 86.0742 9.02344zM80.8711 9.32812C80.8711 8.99219 80.8203 8.66797 80.7188 8.35547 80.625 8.03516 80.4844 7.75391 80.2969 7.51172 80.1094 7.26172 79.875 7.0625 79.5938 6.91406 79.3203 6.75781 79.0039 6.67969 78.6445 6.67969 78.2773 6.67969 77.9492 6.74609 77.6602 6.87891 77.3711 7.01172 77.1211 7.19531 76.9102 7.42969 76.707 7.65625 76.5508 7.92578 76.4414 8.23828 76.332 8.54297 76.2773 8.86719 76.2773 9.21094 76.2773 9.53906 76.3242 9.86719 76.418 10.1953 76.5117 10.5234 76.6523 10.8203 76.8398 11.0859 77.0273 11.3516 77.2578 11.5664 77.5312 11.7305 77.8125 11.8945 78.1367 11.9766 78.5039 11.9766 78.8711 11.9766 79.1992 11.9062 79.4883 11.7656 79.7852 11.6172 80.0352 11.4219 80.2383 11.1797 80.4414 10.9297 80.5977 10.6445 80.707 10.3242 80.8164 10.0039 80.8711 9.67188 80.8711 9.32812zM100.863 1.5C100.512 4.25 100.211 6.98828 99.9609 9.71484 99.7109 12.4336 99.4727 15.1719 99.2461 17.9297L94.4414 18.2812 94.6523 16.4766C94.4961 16.6562 94.3125 16.8125 94.1016 16.9453 93.8984 17.0781 93.6797 17.1875 93.4453 17.2734 93.2109 17.3516 92.9688 17.4102 92.7188 17.4492 92.4688 17.4805 92.2305 17.4922 92.0039 17.4844 91.4727 17.4766 90.9727 17.375 90.5039 17.1797 90.0352 16.9766 89.6055 16.7109 89.2148 16.3828 88.8242 16.0469 88.4727 15.6602 88.1602 15.2227 87.8477 14.7773 87.582 14.3125 87.3633 13.8281 87.1523 13.3359 86.9883 12.8359 86.8711 12.3281 86.7617 11.8203 86.707 11.3281 86.707 10.8516 86.707 10.1484 86.7188 9.42188 86.7422 8.67188 86.7734 7.91406 86.8242 7.15625 86.8945 6.39844 86.9648 5.64062 87.0547 4.89062 87.1641 4.14844 87.2812 3.40625 87.4258 2.69531 87.5977 2.01562 88.5508 2.0625 89.5078 2.10547 90.4688 2.14453 91.4297 2.18359 92.3867 2.19531 93.3398 2.17969 93.1602 2.85938 92.9805 3.54297 92.8008 4.23047 92.6289 4.91016 92.4727 5.59766 92.332 6.29297 92.1914 6.98047 92.0781 7.67188 91.9922 8.36719 91.9062 9.0625 91.8633 9.76562 91.8633 10.4766 91.8633 10.6406 91.8711 10.875 91.8867 11.1797 91.9023 11.4844 91.9414 11.7852 92.0039 12.082 92.0742 12.3789 92.1758 12.6406 92.3086 12.8672 92.4492 13.0859 92.6445 13.1953 92.8945 13.1953 93.1914 13.1953 93.457 13.0703 93.6914 12.8203 93.9258 12.5625 94.1328 12.2188 94.3125 11.7891 94.4922 11.3594 94.6445 10.8633 94.7695 10.3008 94.9023 9.73828 95.0117 9.15234 95.0977 8.54297 95.1914 7.92578 95.2656 7.30469 95.3203 6.67969 95.375 6.05469 95.4141 5.46875 95.4375 4.92188 95.4688 4.36719 95.4883 3.87109 95.4961 3.43359 95.5117 2.99609 95.5195 2.65625 95.5195 2.41406 95.5195 2.25781 95.5156 2.10547 95.5078 1.95703 95.5 1.80859 95.4883 1.65625 95.4727 1.5 95.9805 1.51562 96.4844 1.52734 96.9844 1.53516 97.4844 1.54297 97.9883 1.54688 98.4961 1.54688 98.8867 1.54688 99.2773 1.54688 99.668 1.54688 100.066 1.53906 100.465 1.52344 100.863 1.5zM115.301 6.70312C115.301 7.3125 115.246 7.86719 115.137 8.36719 115.035 8.85938 114.871 9.3125 114.645 9.72656 114.418 10.1406 114.125 10.5234 113.766 10.875 113.406 11.2266 112.973 11.5625 112.465 11.8828L115.254 16.8516 109.98 17.8828 108.176 12.8906 106.723 12.9375 106.512 17.8125H101.473C101.512 16.0312 101.547 14.2578 101.578 12.4922 101.617 10.7266 101.66 8.95312 101.707 7.17188 101.723 6.27344 101.738 5.38281 101.754 4.5 101.77 3.61719 101.801 2.72656 101.848 1.82812 102.395 1.625 102.934 1.45703 103.465 1.32422 103.996 1.19141 104.527 1.08984 105.059 1.01953 105.598.941406 106.141.890625 106.688.867188 107.242.835937 107.809.820312 108.387.820312 109.277.820312 110.137.945313 110.965 1.19531 111.801 1.4375 112.539 1.80469 113.18 2.29688 113.82 2.78906 114.332 3.40234 114.715 4.13672 115.105 4.87109 115.301 5.72656 115.301 6.70312zm-5.25.375C110.051 6.75 110.004 6.44922 109.91 6.17578 109.824 5.90234 109.691 5.66797 109.512 5.47266 109.34 5.26953 109.121 5.11328 108.855 5.00391 108.598 4.88672 108.293 4.82812 107.941 4.82812 107.785 4.82812 107.633 4.83984 107.484 4.86328 107.336 4.87891 107.191 4.90625 107.051 4.94531L106.863 9.30469H107.145C107.48 9.30469 107.82 9.26172 108.164 9.17578 108.516 9.08984 108.828 8.95703 109.102 8.77734 109.383 8.59766 109.609 8.36719 109.781 8.08594 109.961 7.80469 110.051 7.46875 110.051 7.07812z" fill="#ec1f46"/></svg>