<svg width="20" height="20" viewBox="0 0 20 20" fill="none" xmlns="http://www.w3.org/2000/svg"><path d="M10 20C8.64583 20 7.35026 19.7363 6.11328 19.209 4.8763 18.6816 3.81185 17.972 2.91992 17.0801 2.02799 16.1882 1.31836 15.1237.791016 13.8867.263672 12.6497.0 11.3542.0 10 0 8.64583.263672 7.35026.791016 6.11328 1.31836 4.8763 2.02799 3.81185 2.91992 2.91992 3.81185 2.02799 4.8763 1.31836 6.11328.791016 7.35026.263672 8.64583.0 10 0 11.3542.0 12.6497.263672 13.8867.791016 15.1237 1.31836 16.1882 2.02799 17.0801 2.91992 17.972 3.81185 18.6816 4.8763 19.209 6.11328 19.7363 7.35026 20 8.64583 20 10 20 11.3542 19.7363 12.6497 19.209 13.8867 18.6816 15.1237 17.972 16.1882 17.0801 17.0801 16.1882 17.972 15.1237 18.6816 13.8867 19.209 12.6497 19.7363 11.3542 20 10 20zM15 6.25C15 5.91146 14.8796 5.61849 14.6387 5.37109 14.3978 5.1237 14.1016 5 13.75 5H6.25C5.91146 5 5.61849 5.1237 5.37109 5.37109 5.1237 5.61849 5 5.91146 5 6.25V7.5H7.22656C7.98177 6.66667 8.90625 6.25 10 6.25 11.0938 6.25 12.0182 6.66667 12.7734 7.5H15V6.25zM7.5 10C7.5 10.6901 7.74414 11.2793 8.23242 11.7676 8.7207 12.2559 9.3099 12.5 10 12.5 10.6901 12.5 11.2793 12.2559 11.7676 11.7676 12.2559 11.2793 12.5 10.6901 12.5 10 12.5 9.3099 12.2559 8.7207 11.7676 8.23242 11.2793 7.74414 10.6901 7.5 10 7.5 9.3099 7.5 8.7207 7.74414 8.23242 8.23242 7.74414 8.7207 7.5 9.3099 7.5 10zM15 8.75H13.5156C13.6719 9.17969 13.75 9.59635 13.75 10 13.75 11.0417 13.3854 11.9271 12.6562 12.6562 11.9271 13.3854 11.0417 13.75 10 13.75 8.95833 13.75 8.07292 13.3854 7.34375 12.6562 6.61458 11.9271 6.25 11.0417 6.25 10 6.25 9.59635 6.32812 9.17969 6.48438 8.75H5v5C5 14.1016 5.12044 14.3978 5.36133 14.6387 5.60221 14.8796 5.89844 15 6.25 15h7.5C14.1016 15 14.3978 14.8796 14.6387 14.6387 14.8796 14.3978 15 14.1016 15 13.75v-5z" fill="#bdbdbd"/></svg>