<svg width="14" height="14" viewBox="0 0 14 14" fill="none" xmlns="http://www.w3.org/2000/svg"><g clip-path="url(#clip0)"><path d="M11.6666 13.3583C11.6083 13.3583 11.5499 13.3583 11.4916 13.3583 9.62494 13.125 7.75827 12.4833 6.18327 11.4917 4.72494 10.5583 3.4416 9.275 2.50827 7.81667 1.45827 6.24167.816602 4.375.641602 2.50833.641602 2.04167.758268 1.575 1.04993 1.225 1.3416.875 1.74993.641667 2.2166.583333 2.27493.583333 2.33327.583333 2.3916.583333H4.1416C5.0166.583333 5.77494 1.225 5.8916 2.1 5.94994 2.625 6.0666 3.15 6.2416 3.61667 6.47493 4.25833 6.29994 4.95833 5.83327 5.48333L5.42494 5.89167C6.12494 6.94167 6.99993 7.875 8.10827 8.575L8.5166 8.16667C8.98327 7.7 9.7416 7.525 10.3833 7.75833 10.8499 7.93333 11.3749 8.05 11.8999 8.10833 12.7749 8.225 13.4166 8.98333 13.4166 9.85833V11.6083C13.4166 12.075 13.2416 12.5417 12.8916 12.8333 12.5416 13.125 12.1333 13.3583 11.6666 13.3583zM4.1416 1.75H2.3916C2.2166 1.75 2.0416 1.86667 1.92493 1.98333 1.8666 2.1 1.80827 2.21667 1.80827 2.39167 1.98327 4.08333 2.5666 5.71667 3.49994 7.175 4.37494 8.51667 5.48327 9.68333 6.82493 10.5 8.28327 11.4333 9.9166 12.0167 11.6083 12.1917 11.8416 12.1917 11.9583 12.1333 12.0749 12.0167 12.1916 11.9 12.2499 11.7833 12.2499 11.6083V9.85833C12.2499 9.56667 12.0166 9.33333 11.7249 9.275 11.1416 9.21667 10.5583 9.04167 9.97494 8.80833 9.7416 8.75 9.50827 8.75 9.33327 8.925L8.57494 9.68333C8.39994 9.85833 8.10827 9.91667 7.87494 9.8 6.29994 8.925 5.0166 7.64167 4.1416 6.06667 4.08327 5.83333 4.1416 5.54167 4.3166 5.36667L5.07494 4.60833C5.1916 4.49167 5.24994 4.2 5.1916 4.025 4.95827 3.44167 4.8416 2.85833 4.72494 2.275 4.72494 1.98333 4.43327 1.75 4.1416 1.75zM11.0833 5.83333C10.7916 5.83333 10.5583 5.65833 10.4999 5.36667 10.3249 4.43333 9.5666 3.73333 8.63327 3.5 8.3416 3.44167 8.10827 3.15 8.1666 2.8 8.22494 2.50833 8.5166 2.275 8.8666 2.33333 10.2666 2.625 11.3749 3.675 11.6083 5.075 11.6666 5.36667 11.4916 5.71667 11.1416 5.775 11.1416 5.775 11.1416 5.83333 11.0833 5.83333zM13.4166 5.775C13.1249 5.775 12.8916 5.54167 12.8333 5.25 12.5999 3.09167 10.9083 1.4 8.6916 1.10833 8.39993 1.05 8.1666.758333 8.1666.466667 8.1666.175 8.5166-.0583333 8.80827-.0583333 11.5499.233333 13.6499 2.33333 13.9416 5.075 13.9999 5.36667 13.7666 5.65833 13.4166 5.71667 13.4749 5.775 13.4166 5.775 13.4166 5.775z" fill="#fff"/></g><defs><clipPath id="clip0"><path d="M0 0h14v14H0z" fill="#fff"/></clipPath></defs></svg>