<svg width="16" height="16" viewBox="0 0 16 16" fill="none" xmlns="http://www.w3.org/2000/svg"><path fill-rule="evenodd" clip-rule="evenodd" d="M7.33325 2.66668c-2.57733.0-4.66666 2.08933-4.66666 4.66666C2.66659 9.91067 4.75592 12 7.33325 12 9.91058 12 11.9999 9.91067 11.9999 7.33334 11.9999 4.75601 9.91058 2.66668 7.33325 2.66668zm-6 4.66666c0-3.3137099999999995 2.68629-6 6-6C10.647 1.33334 13.3333 4.01963 13.3333 7.33334 13.3333 10.6471 10.647 13.3333 7.33325 13.3333 4.01954 13.3333 1.33325 10.6471 1.33325 7.33334z" fill="#fff"/><path fill-rule="evenodd" clip-rule="evenodd" d="M10.6286 10.6286C10.889 10.3682 11.3111 10.3682 11.5714 10.6286L14.4714 13.5286C14.7318 13.7889 14.7318 14.211 14.4714 14.4714 14.2111 14.7317 13.789 14.7317 13.5286 14.4714L10.6286 11.5714C10.3683 11.311 10.3683 10.8889 10.6286 10.6286z" fill="#fff"/></svg>