<svg width="8" height="8" viewBox="0 0 8 8" fill="none" xmlns="http://www.w3.org/2000/svg"><path fill-rule="evenodd" clip-rule="evenodd" d="M4.00005.333328C4.12692.333328 4.2428.405352 4.29895.51912L5.25147 2.44882l2.13012.31135C7.50711 2.77851 7.61134 2.86652 7.65047 2.98718 7.68959 3.10785 7.65683 3.24027 7.56596 3.32878L6.02489 4.82978 6.38859 6.95031C6.41004 7.07538 6.35862 7.20177 6.25596 7.27635 6.1533 7.35092 6.0172 7.36075 5.9049 7.30169L4.00005 6.29994 2.0952 7.30169C1.9829 7.36075 1.8468 7.35092 1.74414 7.27635 1.64148 7.20177 1.59006 7.07538 1.61151 6.95031L1.97521 4.82978.434139 3.32878C.343267 3.24027.310509 3.10785.349635 2.98718.388761 2.86652.492988 2.77851.618508 2.76017L2.74863 2.44882 3.70115.51912C3.7573.405352 3.87318.333328 4.00005.333328zm0 1.086422L3.26895 2.90087C3.22044 2.99915 3.12671 3.06731 3.01826 3.08316L1.38285 3.3222 2.56596 4.47454C2.64459 4.55112 2.68047 4.6615 2.66192 4.76968L2.38278 6.39722 3.8449 5.6283C3.94203 5.57723 4.05807 5.57723 4.1552 5.6283L5.61732 6.39722 5.33818 4.76968C5.31963 4.6615 5.35552 4.55112 5.43414 4.47454L6.61725 3.3222 4.98184 3.08316C4.87339 3.06731 4.77966 2.99915 4.73115 2.90087L4.00005 1.41975z" fill="#f2994a"/><path d="M2.33333 5 1 3 3 2.66667 4 1 5 2.66667 7 3.33333 5.66667 4.66667 6 7 4 6 2 7 2.33333 5z" fill="#f2994a"/></svg>